<?xml version="1.0" encoding="UTF-8" standalone="no"?>
<svg
   xmlns:dc="http://purl.org/dc/elements/1.1/"
   xmlns:cc="http://creativecommons.org/ns#"
   xmlns:rdf="http://www.w3.org/1999/02/22-rdf-syntax-ns#"
   xmlns:svg="http://www.w3.org/2000/svg"
   xmlns="http://www.w3.org/2000/svg"
   xmlns:sodipodi="http://sodipodi.sourceforge.net/DTD/sodipodi-0.dtd"
   xmlns:inkscape="http://www.inkscape.org/namespaces/inkscape"
   viewBox="0 0 4364.789 1465.6276"
   version="1.1"
   id="svg26"
   sodipodi:docname="thirst-logo.svg"
   width="4364.7891"
   height="1465.6277"
   inkscape:version="0.92.3 (2405546, 2018-03-11)">
  <metadata
     id="metadata32">
    <rdf:RDF>
      <cc:Work
         rdf:about="">
        <dc:format>image/svg+xml</dc:format>
        <dc:type
           rdf:resource="http://purl.org/dc/dcmitype/StillImage" />
        <dc:title>Thirst Logo</dc:title>
      </cc:Work>
    </rdf:RDF>
  </metadata>
  <defs
     id="defs30" />
  <sodipodi:namedview
     pagecolor="#ffffff"
     bordercolor="#666666"
     borderopacity="1"
     objecttolerance="10"
     gridtolerance="10"
     guidetolerance="10"
     inkscape:pageopacity="0"
     inkscape:pageshadow="2"
     inkscape:window-width="3840"
     inkscape:window-height="2050"
     id="namedview28"
     showgrid="false"
     fit-margin-top="0"
     fit-margin-left="0"
     fit-margin-right="0"
     fit-margin-bottom="0"
     inkscape:zoom="0.18695061"
     inkscape:cx="780.2203"
     inkscape:cy="463.05157"
     inkscape:window-x="1878"
     inkscape:window-y="-12"
     inkscape:window-maximized="1"
     inkscape:current-layer="svg26" />
  <rect
     id="rect34"
     width="4364.7891"
     height="1465.6277"
     x="0"
     y="0"
     style="fill:#ffba00;fill-opacity:1;opacity:0.918" />
  <title
     id="title2">Thirst Logo</title>
  <path
     d="m 581.8639,769.71409 a 35.37108,35.37108 0 1 1 -35.37104,-35.37108 35.37108,35.37108 0 0 1 35.37104,35.37108 z m 15.9506,-129.50685 a 53.62524,53.62524 0 1 0 53.6252,-53.62524 53.62524,53.62524 0 0 0 -53.6179,53.61066 z m 41.0208,492.43226 c 136.6656,0 247.4591,-110.808 247.4591,-247.4591 a 246.96333,246.96333 0 0 0 -13.851,-81.5751 c -10.8767,10.70172 -25.0193,20.66715 -42.8798,24.50898 -37.2446,8.019 -64.2103,-21.9429 -122.4064,-23.0364 -68.5989,-1.29762 -90.9355,34.13178 -117.1212,47.18088 -37.27374,18.56763 -95.73225,22.97808 -192.60906,-21.47634 a 248.0787,248.0787 0 0 0 -6.07257,54.39798 c 0.0292,136.6511 110.81529,247.4445 247.48823,247.4445 z M 409.71059,604.23109 a 82.56654,82.56654 0 0 0 30.618,-64.18845 v -82.87272 a 34.66395,34.66395 0 0 1 34.66395,-34.66395 h 15.50583 a 142.34454,142.34454 0 0 0 35.20341,-4.41774 l 280.50462,-71.5878 v 76.01283 h -3.4846 a 34.66395,34.66395 0 0 1 34.664,34.66395 v 82.84356 a 82.00521,82.00521 0 0 0 30.2826,63.91872 c 85.1691,69.255 134.0121,171.90549 134.0121,281.57625 0,96.0385 -37.179,186.56576 -104.6261,254.90216 -67.4471,68.3365 -157.3255,106.5798 -253.189,107.892 h -4.9499 c -196.1885,0 -358.44932,-158.0763 -362.77958,-354.64394 -2.50776,-112.7034 46.18944,-218.21157 133.57467,-289.43487 z m -65.15802,287.955 c 3.51378,159.45421 135.17847,287.68531 294.34833,287.69991 5.2196,0 10.206,-0.1312 17.0367,-0.5322 52.4006,-3.0691 103.5181,-19.4133 146.8207,-49.0398 83.3538,-56.9932 130.4472,-147.39653 130.4472,-244.78368 A 293.37876,293.37876 0 0 0 824.4533,657.06172 150.174,150.174 0 0 1 768.9108,540.01348 V 490.96636 H 508.7744 v 49.04712 A 150.76449,150.76449 0 0 1 452.96945,657.25855 C 382.05233,715.08283 342.54053,800.70388 344.55257,892.18609 Z M 471.47876,338.40124 v 56.60685 L 806.1773,309.58387 V 278.28061 A 19.683,19.683 0 0 0 781.6537,259.23184 Z M 672.763,194.35084 h -67.8772 a 30.95334,30.95334 0 0 0 -30.9534,30.95334 v 5.41647 h -61.25785 a 41.18121,41.18121 0 0 0 -41.19579,41.17392 v 29.59011 L 703.7163,242.20969 v -16.9128 a 30.95334,30.95334 0 0 0 -30.9388,-30.95334 z"
     id="path4"
     inkscape:connector-curvature="0"
     style="fill:#ffffff;stroke-width:0.72900003" />
  <g
     id="g24"
     transform="matrix(0.729,0,0,0.729,276.02657,194.34355)"
     style="fill:#ffffff">
    <path
       d="m 2379.11,799.07 v 329.44 a 17.71,17.71 0 0 1 -17.71,17.71 h -120.47 a 17.71,17.71 0 0 1 -17.71,-17.71 v -301.1 c 0,-95.64 -52,-128.7 -108.63,-128.7 -87.38,0 -127.53,86.2 -127.53,113.36 v 316.45 a 17.71,17.71 0 0 1 -17.71,17.71 H 1848.9 a 17.71,17.71 0 0 1 -17.71,-17.71 V 301.95 a 17.72,17.72 0 0 1 17.72,-17.69 h 120.44 a 17.71,17.71 0 0 1 17.71,17.71 v 360.14 c 37.79,-61.4 99.19,-107.45 183,-107.45 118.05,-0.02 209.05,89.72 209.05,244.41 z"
       id="path6"
       inkscape:connector-curvature="0" />
    <path
       d="m 2491.19,371.62 a 85.91,85.91 0 0 1 82.66,-86.13 c 45.4,-1.8 85.12,34.5 88.34,79.82 3.54,50 -35.47,92.5 -84.79,92.5 a 85.92,85.92 0 0 1 -86.21,-86.19 z m 26,196 h 120.42 a 17.71,17.71 0 0 1 17.71,17.71 v 543.17 a 17.71,17.71 0 0 1 -17.71,17.76 h -120.44 a 17.71,17.71 0 0 1 -17.71,-17.71 V 585.34 a 17.71,17.71 0 0 1 17.71,-17.71 z"
       id="path8"
       inkscape:connector-curvature="0" />
    <path
       d="m 3160.67,605.41 -35.42,87.38 c -4.73,13 -14.17,15.35 -26,11.81 -11.83,-3.54 -26,-8.27 -48.42,-8.27 -73.21,0 -120.44,54.32 -120.44,125.16 v 307 a 17.71,17.71 0 0 1 -17.71,17.71 h -120.42 a 17.71,17.71 0 0 1 -17.71,-17.71 V 585.34 a 17.71,17.71 0 0 1 17.71,-17.71 h 114.54 c 10.62,0 16.53,7.08 17.71,17.71 l 4.72,63.76 c 30.7,-55.5 77.93,-94.47 147.6,-94.47 33.07,0 61.4,13 77.93,27.16 9.45,7.09 9.45,15.36 5.91,23.62 z"
       id="path10"
       inkscape:connector-curvature="0" />
    <path
       d="m 3649.47,984.45 c 0,112.18 -114.54,177.12 -220.81,177.12 -99.19,0 -179.48,-48.41 -220.81,-96.82 -7.09,-8.27 -4.73,-16.53 0,-23.61 l 46.05,-64.94 c 7.08,-9.45 15.35,-7.09 26,1.18 47.23,30.7 98,53.13 144.05,53.13 37.79,0 74.39,-11.81 74.39,-48.41 0,-92.1 -279.85,-56.68 -279.85,-251.51 0,-111 96.83,-175.94 200.74,-175.94 74.39,0 150,30.7 198.37,87.39 7.08,8.26 4.72,17.71 -1.19,24.79 l -44.87,59 c -7.09,9.45 -15.35,7.09 -26,-1.18 -44.87,-29.52 -72,-44.87 -113.36,-44.87 -36.61,0 -63.76,20.07 -63.76,49.59 0.02,94.49 281.05,42.53 281.05,255.08 z"
       id="path12"
       inkscape:connector-curvature="0" />
    <path
       d="m 4053.26,585.34 v 92.1 a 17.71,17.71 0 0 1 -17.71,17.71 h -82.66 v 433.35 a 17.71,17.71 0 0 1 -17.71,17.71 h -120.44 a 17.71,17.71 0 0 1 -17.71,-17.71 V 695.16 h -82.66 a 17.71,17.71 0 0 1 -17.71,-17.71 v -92.1 a 17.71,17.71 0 0 1 17.71,-17.71 h 82.66 V 408.26 a 17.71,17.71 0 0 1 17.71,-17.71 h 120.44 a 17.71,17.71 0 0 1 17.71,17.71 v 159.41 h 82.66 a 17.71,17.71 0 0 1 17.71,17.67 z"
       id="path14"
       inkscape:connector-curvature="0" />
    <path
       d="m 1737.95,585.34 v 92.1 a 17.71,17.71 0 0 1 -17.71,17.71 h -82.66 v 433.35 a 17.71,17.71 0 0 1 -17.71,17.71 h -120.44 a 17.71,17.71 0 0 1 -17.71,-17.71 V 695.16 h -82.66 a 17.71,17.71 0 0 1 -17.71,-17.71 v -92.1 a 17.71,17.71 0 0 1 17.71,-17.71 h 82.66 V 408.26 a 17.71,17.71 0 0 1 17.71,-17.71 h 120.44 a 17.71,17.71 0 0 1 17.71,17.71 v 159.41 h 82.66 a 17.71,17.71 0 0 1 17.71,17.67 z"
       id="path16"
       inkscape:connector-curvature="0" />
    <path
       d="m 4137.61,1085.26 c -5.69,-51.73 33.91,-94.89 85.65,-94.89 47.58,0 85,37.41 85,85 0,51.77 -43.18,91.4 -94.94,85.67 -39.31,-4.38 -71.39,-36.47 -75.71,-75.78 z"
       id="path18"
       inkscape:connector-curvature="0" />
    <path
       d="m 4408.62,371.62 a 85.91,85.91 0 0 1 82.66,-86.13 c 45.4,-1.8 85.12,34.5 88.34,79.82 3.54,50 -35.47,92.5 -84.79,92.5 a 85.92,85.92 0 0 1 -86.21,-86.19 z m 26,196 h 120.45 a 17.71,17.71 0 0 1 17.71,17.71 v 543.17 a 17.71,17.71 0 0 1 -17.71,17.71 H 4434.6 a 17.71,17.71 0 0 1 -17.71,-17.71 V 585.34 a 17.71,17.71 0 0 1 17.71,-17.71 z"
       id="path20"
       inkscape:connector-curvature="0" />
    <path
       d="m 4674.27,858.1 c 0,-170 133.43,-303.47 299.92,-303.47 166.49,0 299.92,133.44 299.92,303.47 0,170.03 -133.43,303.46 -299.93,303.46 -166.5,0 -299.91,-133.43 -299.91,-303.46 z m 449.88,0 c 0,-93.28 -67.3,-159.41 -150,-159.41 -83.83,0 -150,66.13 -150,159.41 0,93.28 66.13,159.41 150,159.41 82.7,0 149.96,-66.12 149.96,-159.41 z"
       id="path22"
       inkscape:connector-curvature="0" />
  </g>
</svg>
